inDegrees=no
num_controls=7
num_derivatives=13
num_iterations=32
num_multipliers=7
num_parameters=0
num_slacks=7
num_states=26
objective=0.426646
objective_accelerations=0.057733
objective_balance=0.001115
objective_effort=0.015436
objective_height=0.346326
objective_ligament=0.006037
solver_duration=491.357402
status=Solve_Succeeded
success=true
DataType=double
version=3
OpenSimVersion=4.5
endheader
time	/jointset/ground_pelvis/pelvis_tilt/value	/jointset/ground_pelvis/pelvis_tx/value	/jointset/ground_pelvis/pelvis_ty/value	/jointset/hip_l/hip_flexion_l/value	/jointset/hip_l/hip_adduction_l/value	/jointset/hip_l/hip_rotation_l/value	/jointset/back/lumbar_extension/value	/jointset/patellofemoral_l/patellar_flexion_l/value	/jointset/knee_l/knee_flexion_l/value	/jointset/knee_l/knee_adduction_l/value	/jointset/knee_l/knee_rotation_l/value	/jointset/ankle_l/ankle_angle_l/value	/jointset/subtalar_l/subtalar_angle_l/value	/jointset/ground_pelvis/pelvis_tilt/speed	/jointset/ground_pelvis/pelvis_tx/speed	/jointset/ground_pelvis/pelvis_ty/speed	/jointset/hip_l/hip_flexion_l/speed	/jointset/hip_l/hip_adduction_l/speed	/jointset/hip_l/hip_rotation_l/speed	/jointset/back/lumbar_extension/speed	/jointset/patellofemoral_l/patellar_flexion_l/speed	/jointset/knee_l/knee_flexion_l/speed	/jointset/knee_l/knee_adduction_l/speed	/jointset/knee_l/knee_rotation_l/speed	/jointset/ankle_l/ankle_angle_l/speed	/jointset/subtalar_l/subtalar_angle_l/speed	/forceset/tau_hip_flexion_l	/forceset/tau_hip_adduction_l	/forceset/tau_hip_rotation_l	/forceset/tau_knee_flexion_l	/forceset/tau_ankle_angle_l	/forceset/tau_subtalar_angle_l	/forceset/tau_lumbar_extension	lambda_cid13_p0	lambda_cid13_p1	lambda_cid13_p2	lambda_cid13_p3	lambda_cid13_p4	lambda_cid13_p5	lambda_cid14_p0	/jointset/ground_pelvis/pelvis_tilt/accel	/jointset/ground_pelvis/pelvis_tx/accel	/jointset/ground_pelvis/pelvis_ty/accel	/jointset/hip_l/hip_flexion_l/accel	/jointset/hip_l/hip_adduction_l/accel	/jointset/hip_l/hip_rotation_l/accel	/jointset/back/lumbar_extension/accel	/jointset/patellofemoral_l/patellar_flexion_l/accel	/jointset/knee_l/knee_flexion_l/accel	/jointset/knee_l/knee_adduction_l/accel	/jointset/knee_l/knee_rotation_l/accel	/jointset/ankle_l/ankle_angle_l/accel	/jointset/subtalar_l/subtalar_angle_l/accel	gamma_cid13_p0	gamma_cid13_p1	gamma_cid13_p2	gamma_cid13_p3	gamma_cid13_p4	gamma_cid13_p5	gamma_cid14_p0
1	-0.4492005421866586	-0.0008456540766312952	0.5973900873981599	1.68874440489166	-0.348177280126623	0.1431321831501266	-0.436200015068854	1.500677824193845	1.500677824193781	0.04811335785268588	-0.1743616872763712	0.4347993261261037	0.2463698842750996	-0.13861157048682	0.004764024661088513	0.04381454816297283	-0.008456394315465725	-0.003272807110380156	-0.05760879771607826	-0.002996310417831706	-0.1820163665337988	-0.182016366533797	-0.01783133405675599	-0.0001113575835470078	-0.05100267636308244	-0.03591509297736159	-0.2345051712171296	0.08606005185837629	-0.009210732571073936	-0.2947429843038037	-0.01051065882496436	-0.01931064514937875	0.2057820846424019	-39.73401228984625	26.49953459656391	-17.24834901714599	2.223208625367351	-541.7751507161294	-27.41273364541069	-0.02371761886194103	1.415242698595569	0.2814704835837066	1.993375220110111	-6.598884276692432	-0.257818103098983	-1.545594851487214	-0.04079014424964506	-5.555167549167201	-5.555167549167099	-0.8960323401945639	-0.02075792285730477	-0.854766711535079	-0.9192023629507485	-5.554345578303674e-09	-1.254280674190109e-07	-5.725262524071541e-08	-8.664131562483373e-09	-7.103568222429906e-09	-1.531462650918536e-07	3.66893328308153e-09
1.01	-0.450516801589779	-0.0007839303345951984	0.5979276519850244	1.688331222768544	-0.3482223386892379	0.142480581489296	-0.4362306748429355	1.498580244969548	1.498580244969446	0.04788934202431902	-0.1743624520220487	0.4342464586931977	0.2459656554623684	-0.1246500872961131	0.007587902127713667	0.06368598810346467	-0.07414736534061327	-0.00573282751641773	-0.07270067646891525	-0.003093258832634239	-0.2374974349794302	-0.2374974349794238	-0.02697123729290105	-4.034628067830877e-05	-0.05958964498053338	-0.04492562787712947	-0.2349978865035237	0.08601527160440894	-0.009215068270754192	-0.2936172919529317	-0.01105860249130814	-0.01923810166405989	0.2060750070053906	-39.85718187873854	26.41879703660083	-17.15460899033192	2.155256918743279	-541.596176041242	-27.35523365494803	-0.02373818988197925	1.385134154991103	0.2839197738115961	1.982169003811631	-6.549304249870937	-0.2391691266702128	-1.489363306597735	0.01221064436686537	-5.54427061436057	-5.544270614360006	-0.9228931063240522	0.02119267937267925	-0.8634957686717097	-0.8911881321995001	-6.295774275652403e-09	-1.628136200982746e-07	-7.279033965091898e-08	-1.672516063056944e-08	-1.101634769394416e-08	-1.887974648639927e-07	3.125565925131919e-09
1.02	-0.4516937395558666	-0.0006937531387713748	0.5986635590958543	1.687262110788249	-0.3482918124793757	0.1416783852570327	-0.4362610325342182	1.495927916236376	1.49592791623625	0.04757394240565319	-0.1743624742501944	0.433607154807765	0.2454714794848975	-0.1107472830780546	0.01045471541863357	0.08348305295586636	-0.1396423657435441	-0.008155852615001447	-0.08772771199838787	-0.002935893868898907	-0.2929662683090439	-0.2929662683090336	-0.03610809216904622	3.714592274209398e-05	-0.06828996687085631	-0.05390452592528355	-0.2354906017901233	0.08597049135034994	-0.009219403969423563	-0.2924915996020149	-0.01160654615763838	-0.01916555817891153	0.2063679293681486	-39.98241727376664	26.33518698865192	-17.05671653750976	2.077512854121801	-541.5286293100339	-27.30144234988245	-0.02376074028444559	1.40350690406601	0.2900576484425451	1.978500202492067	-6.559690152249019	-0.2504190416081526	-1.5326262068142	0.01007253145805701	-5.552720525963632	-5.552720525963659	-0.8954226681946578	-0.0194617427468836	-0.877437366109679	-0.912874992628009	-7.305413210128684e-09	-1.979899147526784e-07	-8.82267532421665e-08	-2.401300264067321e-08	-1.530124096852065e-08	-2.198618554551364e-07	2.461631242051798e-09
1.03	-0.4527317877825762	-0.0005746480047532789	0.5995969869194986	1.685539058853954	-0.3483854310739321	0.1407264549952185	-0.4362885343083762	1.492721075634116	1.492721075633983	0.04716689978078674	-0.1743619317542521	0.4328802216969103	0.244887490643304	-0.09685766514650811	0.01337796589445381	0.1031823115516416	-0.2049318821634169	-0.01057132928689188	-0.1026278673080885	-0.002519884363966673	-0.3483885189437715	-0.348388518943771	-0.04532719889816613	4.930067737834266e-05	-0.07712121016059716	-0.06290527753690296	-0.2358615539815672	0.08594043062722272	-0.009202509376155715	-0.2910644884779324	-0.01222348068616891	-0.01907093209644379	0.2065977218422574	-40.10470572079672	26.22601990340448	-16.93710154434196	1.992373150591551	-541.1820779996931	-27.22339918677831	-0.02378927026685703	1.382392474760893	0.2952006205654958	1.962604710884332	-6.508163005191595	-0.2376116506588719	-1.464151749224941	0.0640516503692745	-5.534977707606147	-5.534977707607617	-0.9391898175467603	0.008211287947314096	-0.8896633475230988	-0.8954308476973317	-8.317788983759329e-09	-2.33143665957849e-07	-1.036621331515879e-07	-3.129295498692002e-08	-1.958993132272022e-08	-2.508794418709638e-07	1.796466280143815e-09
1.04	-0.4536307991825698	-0.0004259619912945427	0.6007268005336551	1.683164195631778	-0.3485033043693409	0.1396264348690328	-0.436310538689366	1.488960412450433	1.488960412450287	0.04666685906046835	-0.1743619362700663	0.4320642370457604	0.24421314316514	-0.0829399177324406	0.01637089130676134	0.1227602110581645	-0.2700046233166735	-0.01300679278592362	-0.1173456848648782	-0.001836415244654946	-0.4037307845936573	-0.4037307845936665	-0.05470771131835241	-7.225643284657803e-05	-0.08610027493501965	-0.0719762532392608	-0.2362325061730395	0.08591036990393788	-0.009185614781758049	-0.2896373773538201	-0.01284041521473778	-0.01897630601428881	0.2068275143163126	-40.2292694380692	26.11394705319676	-16.81324896115783	1.897739080695692	-540.9485278710116	-27.15059731698749	-0.02381992786956167	1.409132800570305	0.3039926357398964	1.954228384641589	-6.516335098925714	-0.2544164070363701	-1.496158656231872	0.06356445433439421	-5.536723528995261	-5.536723528995281	-0.9277038064080118	-0.04620411571904443	-0.9070016630462039	-0.9269198107757173	-9.212720288230479e-09	-2.647534780759869e-07	-1.286287527868043e-07	-3.750152577318202e-08	-2.249905147856518e-08	-2.835906437044936e-07	2.986480769751953e-09
1.05	-0.4543897975947407	-0.000246903248115253	0.6020517513202202	1.680139091303703	-0.3486455076695511	0.1383798019044125	-0.4363248759470922	1.484646973486414	1.484646973486382	0.04607283996255068	-0.1743635958136384	0.4311579238102932	0.2434480956493962	-0.06878432836264166	0.01946215275355085	0.1422064628754738	-0.3350419077043917	-0.01542535926420565	-0.1319806920211443	-0.001038332546402969	-0.4589189426606635	-0.4589189426606717	-0.06406516664484262	-0.0002599944733198321	-0.09516628261627257	-0.08100980331891479	-0.2365412142334063	0.08591352150772988	-0.009154538568033515	-0.2878466463704971	-0.01353908516164846	-0.01886075661245759	0.2070305325262113	-40.35271413693751	25.97557271711305	-16.66576411158791	1.762914123273837	-540.4258521696801	-27.0458880323898	-0.02385374803891684	1.430085374742236	0.3148784148529354	1.936295971354256	-6.501277144880971	-0.2342710151252541	-1.447153681419213	0.08683574310709728	-5.504152972634923	-5.504152972634825	-0.9351506070471057	-0.005158605311654346	-0.9070024319474584	-0.8879897135892817	-1.010398145304039e-08	-2.962525420976551e-07	-1.538932236634518e-07	-4.36766158856945e-08	-2.536506006571155e-08	-3.163547710198267e-07	4.234469617219959e-09
